<?xml version="1.0" standalone="no"?><!DOCTYPE svg PUBLIC "-//W3C//DTD SVG 1.1//EN" "http://www.w3.org/Graphics/SVG/1.1/DTD/svg11.dtd"><svg t="1690478412747" class="icon" viewBox="0 0 2019 1024" version="1.1" xmlns="http://www.w3.org/2000/svg" p-id="5068" xmlns:xlink="http://www.w3.org/1999/xlink" width="394.3359375" height="200"><path d="M775.409339 0m84.810397 0l0 0q84.810396 0 84.810396 84.810396l0 702.714714q0 84.810396-84.810396 84.810397l0 0q-84.810396 0-84.810397-84.810397l0-702.714714q0-84.810396 84.810397-84.810396Z" fill="#ffffff" p-id="5069"></path><path d="M1163.114009 218.083877m84.810396 0l0 0q84.810396 0 84.810397 84.810396l0 266.54696q0 84.810396-84.810397 84.810397l0 0q-84.810396 0-84.810396-84.810397l0-266.54696q0-84.810396 84.810396-84.810396Z" fill="#ffffff" p-id="5070"></path><path d="M1550.818678 339.241586m84.810397 0l0 0q84.810396 0 84.810396 84.810396l0 24.231542q0 84.810396-84.810396 84.810397l0 0q-84.810396 0-84.810397-84.810397l0-24.231542q0-84.810396 84.810397-84.810396Z" fill="#ffffff" p-id="5071"></path><path d="M0 339.241586m84.810396 0l0 0q84.810396 0 84.810397 84.810396l0 24.231542q0 84.810396-84.810397 84.810397l0 0q-84.810396 0-84.810396-84.810397l0-24.231542q0-84.810396 84.810396-84.810396Z" fill="#ffffff" p-id="5072"></path><path d="M387.70467 218.083877m84.810396 0l0 0q84.810396 0 84.810396 84.810396l0 266.54696q0 84.810396-84.810396 84.810397l0 0q-84.810396 0-84.810396-84.810397l0-266.54696q0-84.810396 84.810396-84.810396Z" fill="#ffffff" p-id="5073"></path></svg>