<?xml version="1.0" standalone="no"?><!DOCTYPE svg PUBLIC "-//W3C//DTD SVG 1.1//EN" "http://www.w3.org/Graphics/SVG/1.1/DTD/svg11.dtd"><svg t="1691586047290" class="icon" viewBox="0 0 1024 1024" version="1.1" xmlns="http://www.w3.org/2000/svg" p-id="1454" xmlns:xlink="http://www.w3.org/1999/xlink" width="200" height="200"><path d="M405.333333 640V384a42.666667 42.666667 0 0 1 64.597334-36.565333l213.333333 128a42.666667 42.666667 0 0 1 0 73.130666l-213.333333 128A42.666667 42.666667 0 0 1 405.333333 640z m127.402667-100.565333l-42.069333 25.173333v-105.258667l42.069333 25.216 45.653333 27.434667-45.653333 27.434667z" p-id="1455" fill="#ffffff"></path><path d="M96.085333 334.336Q174.08 246.570667 210.346667 210.304q59.008-59.050667 135.594666-91.434667Q425.258667 85.333333 512 85.333333q86.784 0 166.101333 33.536 76.544 32.426667 135.594667 91.434667 59.050667 59.008 91.434667 135.594667Q938.666667 425.258667 938.666667 512q0 86.784-33.536 166.101333-32.426667 76.544-91.434667 135.594667-59.050667 59.050667-135.594667 91.434667Q598.741333 938.666667 512 938.666667q-86.784 0-166.101333-33.536-76.544-32.426667-135.594667-91.434667a42.666667 42.666667 0 1 1 60.330667-60.330667Q370.602667 853.333333 512 853.333333t241.365333-99.968Q853.333333 653.397333 853.333333 512t-99.968-241.365333Q653.397333 170.666667 512 170.666667T270.634667 270.634667q-34.474667 34.474667-110.72 120.362666a42.666667 42.666667 0 0 1-63.829334-56.661333z" p-id="1456" fill="#ffffff"></path><path d="M298.666667 405.333333H128a42.666667 42.666667 0 0 1-42.666667-42.666666v-170.666667a42.666667 42.666667 0 1 1 85.333334 0v128h128a42.666667 42.666667 0 0 1 0 85.333333z" p-id="1457" fill="#ffffff"></path></svg>