<?xml version="1.0" standalone="no"?><!DOCTYPE svg PUBLIC "-//W3C//DTD SVG 1.1//EN" "http://www.w3.org/Graphics/SVG/1.1/DTD/svg11.dtd"><svg t="1691938128071" class="icon" viewBox="0 0 1024 1024" version="1.1" xmlns="http://www.w3.org/2000/svg" p-id="9658" xmlns:xlink="http://www.w3.org/1999/xlink" width="200" height="200"><path d="M595.2 896c-2.133333 0-4.266667 0-8.533333-2.133333-8.533333-4.266667-12.8-10.666667-12.8-19.2v-209.066667c-66.133333-8.533333-134.4-4.266667-204.8 10.666667-76.8 17.066667-164.266667 87.466667-266.666667 209.066666-6.4 6.4-14.933333 10.666667-25.6 6.4-8.533333-4.266667-14.933333-12.8-12.8-21.333333 14.933333-147.2 72.533333-273.066667 170.666667-371.2 93.866667-93.866667 206.933333-145.066667 339.2-151.466667V149.333333c0-8.533333 4.266667-17.066667 12.8-19.2 8.533333-4.266667 17.066667-2.133333 23.466666 4.266667l343.466667 352c8.533333 8.533333 8.533333 21.333333 0 29.866667L610.133333 889.6c-4.266667 4.266667-8.533333 6.4-14.933333 6.4z m-91.733333-277.333333c32 0 64 2.133333 96 8.533333 10.666667 2.133333 17.066667 10.666667 17.066666 21.333333v172.8l292.266667-317.866666L616.533333 202.666667v164.266666c0 10.666667-8.533333 21.333333-21.333333 21.333334-128 0-241.066667 46.933333-330.666667 138.666666-74.666667 74.666667-123.733333 166.4-147.2 273.066667 87.466667-96 168.533333-151.466667 241.066667-166.4 49.066667-10.666667 98.133333-14.933333 145.066667-14.933333z" fill="#ffffff" p-id="9659"></path></svg>