<?xml version="1.0" standalone="no"?><!DOCTYPE svg PUBLIC "-//W3C//DTD SVG 1.1//EN" "http://www.w3.org/Graphics/SVG/1.1/DTD/svg11.dtd"><svg t="1669351920063" class="icon" viewBox="0 0 1024 1024" version="1.1" xmlns="http://www.w3.org/2000/svg" p-id="4058" xmlns:xlink="http://www.w3.org/1999/xlink" width="200" height="200"><path d="M512.3072 883.3024c-41.2672 0-74.8544-33.5872-74.8544-74.8544s33.5872-74.8544 74.8544-74.8544 74.8544 33.5872 74.8544 74.8544S553.5744 883.3024 512.3072 883.3024zM512.3072 770.4576c-20.992 0-37.9904 16.9984-37.9904 37.9904s16.9984 37.9904 37.9904 37.9904 37.9904-16.9984 37.9904-37.9904S533.1968 770.4576 512.3072 770.4576z" p-id="4059" fill="#515151"></path><path d="M680.1408 991.9488c-3.1744 0-6.4512-0.8192-9.4208-2.56-41.2672-24.4736-108.032-24.3712-108.7488-24.3712 0 0-0.1024 0-0.1024 0L276.8896 965.0176c-54.3744 0-98.5088-44.2368-98.5088-98.5088L178.3808 140.3904c0-54.3744 44.2368-98.5088 98.5088-98.5088l470.7328 0c54.3744 0 98.5088 44.2368 98.5088 98.5088l0 726.1184c0 54.3744-44.2368 98.5088-98.5088 98.5088-10.1376 0-18.432-8.2944-18.432-18.432s8.2944-18.432 18.432-18.432c33.9968 0 61.6448-27.648 61.6448-61.6448L809.2672 140.3904c0-33.9968-27.648-61.6448-61.6448-61.6448L276.8896 78.7456c-33.9968 0-61.6448 27.648-61.6448 61.6448l0 726.1184c0 33.9968 27.648 61.6448 61.6448 61.6448l284.8768 0c4.1984 0 78.0288-0.1024 127.7952 29.4912 8.704 5.2224 11.6736 16.4864 6.4512 25.2928C692.5312 988.7744 686.4896 991.9488 680.1408 991.9488z" p-id="4060" fill="#515151"></path><path d="M589.824 149.7088 434.7904 149.7088c-10.1376 0-18.432-8.2944-18.432-18.432s8.2944-18.432 18.432-18.432L589.824 112.8448c10.1376 0 18.432 8.2944 18.432 18.432S599.9616 149.7088 589.824 149.7088z" p-id="4061" fill="#515151"></path><path d="M705.024 230.0928c9.728 0 17.7152 7.8848 17.7152 17.7152l0 376.9344c0 9.728-7.8848 17.7152-17.7152 17.7152L319.5904 642.4576c-9.728 0-17.7152-7.8848-17.7152-17.7152L301.8752 247.808c0-9.728 7.8848-17.7152 17.7152-17.7152L705.024 230.0928M705.024 193.2288 319.5904 193.2288c-30.1056 0-54.5792 24.4736-54.5792 54.5792l0 376.9344c0 30.1056 24.4736 54.5792 54.5792 54.5792l385.4336 0c30.1056 0 54.5792-24.4736 54.5792-54.5792L759.6032 247.808C759.6032 217.7024 735.1296 193.2288 705.024 193.2288L705.024 193.2288z" p-id="4062" fill="#515151"></path></svg>